<svg width="1280" height="390" viewBox="0 0 1280 390" fill="none" xmlns="http://www.w3.org/2000/svg">
<path d="M1280 189.8H703.229" stroke="white" stroke-width="10" stroke-linecap="round"/>
<path d="M0 189.8L608.563 189.8C611.434 189.8 612.773 186.08 610.575 184.235C593.48 169.884 549.837 130.015 542.009 91.0371C532.23 42.3511 554.581 20.7903 571.344 11.053C588.107 1.31561 621.817 0.595647 638.458 29.704" stroke="white" stroke-width="10" stroke-linecap="round"/>
<path d="M784.964 189.8H668.353C665.482 189.8 664.142 186.08 666.341 184.234C683.435 169.884 727.078 130.015 734.907 91.0371C744.686 42.3511 722.335 20.7903 705.572 11.053C688.808 1.31561 655.099 0.595649 638.458 29.704" stroke="#892CDC" stroke-width="10" stroke-linecap="round"/>
<path d="M224.312 157H230.648V124.744H268.664V157H275V89.032H268.664V118.984H230.648V89.032H224.312V157ZM293.593 157H336.697V151.24H299.929V124.744H332.953V118.984H299.929V94.792H335.161V89.032H293.593V157ZM341.668 157H348.292L355.972 138.952H391.972L399.364 157H406.468L377.86 89.032H371.332L341.668 157ZM389.667 133.192H358.468L374.308 95.944L389.667 133.192ZM422.554 94.792H435.994C449.338 94.792 451.93 102.184 451.93 106.888C451.93 111.592 449.338 118.984 435.994 118.984H422.554V94.792ZM416.218 157H422.554V124.744H434.362L453.466 157H460.666L440.89 124.36C448.378 123.4 458.266 119.848 458.266 106.888C458.266 89.032 439.45 89.032 434.074 89.032H416.218V157ZM488.759 157H495.095V94.792H518.327V89.032H465.527V94.792H488.759V157Z" fill="#892CDC"/>
<path d="M770.24 157H776.576V124.744H814.592V157H820.928V89.032H814.592V118.984H776.576V89.032H770.24V157ZM839.521 157H882.625V151.24H845.857V124.744H878.881V118.984H845.857V94.792H881.089V89.032H839.521V157ZM887.595 157H894.219L901.899 138.952H937.899L945.291 157H952.395L923.787 89.032H917.259L887.595 157ZM935.595 133.192H904.395L920.235 95.944L935.595 133.192ZM968.482 94.792H981.922C995.266 94.792 997.858 102.184 997.858 106.888C997.858 111.592 995.266 118.984 981.922 118.984H968.482V94.792ZM962.146 157H968.482V124.744H980.29L999.394 157H1006.59L986.818 124.36C994.306 123.4 1004.19 119.848 1004.19 106.888C1004.19 89.032 985.378 89.032 980.002 89.032H962.146V157ZM1034.69 157H1041.02V94.792H1064.25V89.032H1011.45V94.792H1034.69V157Z" fill="#892CDC"/>
<path d="M379.487 264.766C379.487 266.703 378.159 269.094 375.503 271.938C374.847 272.656 374.034 273.453 373.066 274.328C372.128 275.203 371.128 276.094 370.066 277C369.003 277.875 367.925 278.75 366.831 279.625C365.769 280.5 364.769 281.297 363.831 282.016C360.831 284.328 357.691 286.516 354.409 288.578C351.128 290.641 347.816 292.453 344.472 294.016C341.128 295.578 337.784 296.812 334.441 297.719C331.128 298.625 327.925 299.078 324.831 299.078C321.456 299.078 318.519 298.594 316.019 297.625C313.519 296.656 311.441 295.281 309.784 293.5C308.159 291.719 306.941 289.578 306.128 287.078C305.316 284.547 304.909 281.734 304.909 278.641C304.878 275.828 305.159 272.969 305.753 270.062C306.378 267.156 307.237 264.297 308.331 261.484C309.425 258.672 310.737 255.969 312.269 253.375C313.8 250.75 315.472 248.328 317.284 246.109C318.378 244.766 319.612 243.406 320.987 242.031C322.362 240.625 323.8 239.266 325.3 237.953C326.831 236.641 328.378 235.422 329.941 234.297C331.503 233.141 333.034 232.125 334.534 231.25C335.503 230.688 336.737 230.031 338.237 229.281C339.737 228.531 341.316 227.828 342.972 227.172C344.628 226.516 346.269 225.969 347.894 225.531C349.519 225.062 350.925 224.828 352.112 224.828C354.019 224.828 355.534 224.969 356.659 225.25C357.816 225.5 358.831 225.938 359.706 226.562C360.112 226.875 360.581 227.359 361.112 228.016C361.675 228.641 362.191 229.344 362.659 230.125C363.159 230.875 363.566 231.641 363.878 232.422C364.222 233.172 364.394 233.812 364.394 234.344C364.394 234.875 364.144 235.672 363.644 236.734C363.144 237.797 362.566 238.906 361.909 240.062C361.253 241.188 360.597 242.25 359.941 243.25C359.284 244.219 358.784 244.891 358.441 245.266C357.159 246.672 355.784 247.375 354.316 247.375C353.066 247.375 352.081 247 351.362 246.25C350.675 245.469 350.331 244.5 350.331 243.344C350.331 242.938 350.566 242.312 351.034 241.469C351.503 240.594 352.284 239.609 353.378 238.516C354.472 237.422 355.316 236.422 355.909 235.516C356.534 234.578 356.925 233.953 357.081 233.641C356.456 233.203 355.691 232.859 354.784 232.609C353.878 232.359 353.034 232.234 352.253 232.234C351.128 232.234 349.737 232.5 348.081 233.031C346.425 233.531 344.722 234.188 342.972 235C341.253 235.812 339.566 236.719 337.909 237.719C336.284 238.688 334.909 239.625 333.784 240.531C330.566 243.188 327.597 246.047 324.878 249.109C322.159 252.172 319.909 255.562 318.128 259.281C317.409 260.812 316.722 262.422 316.066 264.109C315.441 265.766 314.894 267.453 314.425 269.172C313.956 270.891 313.581 272.609 313.3 274.328C313.05 276.016 312.925 277.641 312.925 279.203C312.925 281.047 313.128 282.766 313.534 284.359C313.972 285.953 314.675 287.328 315.644 288.484C316.612 289.641 317.878 290.547 319.441 291.203C321.034 291.859 322.987 292.188 325.3 292.188C327.8 292.188 330.362 291.844 332.987 291.156C335.612 290.469 338.222 289.547 340.816 288.391C343.441 287.203 346.034 285.859 348.597 284.359C351.159 282.828 353.612 281.234 355.956 279.578C358.331 277.922 360.581 276.266 362.706 274.609C364.831 272.953 366.769 271.391 368.519 269.922C369.237 269.328 369.987 268.672 370.769 267.953C371.581 267.234 372.378 266.516 373.159 265.797C373.941 265.078 374.691 264.359 375.409 263.641C376.159 262.922 376.816 262.266 377.378 261.672C378.784 262.391 379.487 263.422 379.487 264.766ZM441.878 253.656C441.878 254.188 441.691 254.766 441.316 255.391C440.941 256.016 440.456 256.656 439.862 257.312C439.269 257.938 438.597 258.562 437.847 259.188C437.097 259.781 436.347 260.344 435.597 260.875C434.847 261.375 434.128 261.828 433.441 262.234C432.784 262.609 432.237 262.891 431.8 263.078C430.987 263.422 429.909 263.734 428.566 264.016C427.253 264.266 425.878 264.484 424.441 264.672C423.003 264.859 421.597 265.016 420.222 265.141C418.847 265.234 417.691 265.281 416.753 265.281C416.378 265.281 415.862 265.219 415.206 265.094C414.55 264.969 413.878 264.812 413.191 264.625C412.503 264.438 411.847 264.234 411.222 264.016C410.628 263.766 410.191 263.516 409.909 263.266C410.191 264.453 410.441 265.656 410.659 266.875C410.878 268.062 410.987 269.297 410.987 270.578C410.987 271.141 410.909 271.828 410.753 272.641C410.628 273.453 410.441 274.281 410.191 275.125C409.972 275.938 409.722 276.734 409.441 277.516C409.159 278.266 408.862 278.891 408.55 279.391C407.737 280.766 406.894 282.016 406.019 283.141C405.175 284.266 404.206 285.312 403.112 286.281C402.05 287.219 400.847 288.109 399.503 288.953C398.159 289.797 396.612 290.609 394.862 291.391C392.987 292.203 391.097 292.781 389.191 293.125C387.316 293.438 385.362 293.594 383.331 293.594C382.05 293.594 380.909 293.219 379.909 292.469C378.909 291.719 378.066 290.719 377.378 289.469C376.691 288.188 376.159 286.719 375.784 285.062C375.441 283.406 375.269 281.672 375.269 279.859C375.269 279.391 375.3 278.812 375.362 278.125C375.456 277.438 375.566 276.734 375.691 276.016C375.847 275.297 376.003 274.609 376.159 273.953C376.316 273.297 376.472 272.734 376.628 272.266C377.066 270.953 377.691 269.453 378.503 267.766C379.316 266.078 380.269 264.359 381.362 262.609C382.456 260.828 383.675 259.094 385.019 257.406C386.362 255.688 387.769 254.156 389.237 252.812C390.706 251.469 392.237 250.391 393.831 249.578C395.425 248.766 397.019 248.359 398.612 248.359C399.144 248.359 399.566 248.438 399.878 248.594C400.222 248.75 400.503 248.953 400.722 249.203C400.972 249.453 401.191 249.719 401.378 250C401.566 250.281 401.784 250.562 402.034 250.844C402.128 251 402.269 251.078 402.456 251.078C402.706 251.078 403.019 251.016 403.394 250.891C403.769 250.766 404.191 250.703 404.659 250.703C405.253 250.703 405.987 251.094 406.862 251.875C407.737 252.625 408.644 253.469 409.581 254.406C410.55 255.312 411.503 256.156 412.441 256.938C413.409 257.688 414.269 258.062 415.019 258.062C415.862 258.062 416.769 258.047 417.737 258.016C418.706 257.984 419.691 257.938 420.691 257.875C421.691 257.781 422.675 257.672 423.644 257.547C424.612 257.422 425.503 257.281 426.316 257.125C426.534 257.062 427.05 256.922 427.862 256.703C428.675 256.484 429.612 256.234 430.675 255.953C431.769 255.641 432.909 255.312 434.097 254.969C435.316 254.625 436.441 254.312 437.472 254.031C438.503 253.719 439.347 253.469 440.003 253.281C440.691 253.094 441.066 253 441.128 253C441.316 253 441.487 253.047 441.644 253.141C441.8 253.234 441.878 253.406 441.878 253.656ZM405.316 261.156C405.128 260.531 404.753 259.922 404.191 259.328C403.659 258.734 403.034 258.203 402.316 257.734C401.628 257.266 400.894 256.891 400.112 256.609C399.331 256.297 398.597 256.141 397.909 256.141C397.347 256.141 396.8 256.234 396.269 256.422C395.737 256.609 395.206 256.859 394.675 257.172C394.175 257.453 393.691 257.781 393.222 258.156C392.753 258.5 392.316 258.828 391.909 259.141C390.691 260.172 389.519 261.625 388.394 263.5C387.3 265.344 386.331 267.344 385.487 269.5C384.675 271.625 384.019 273.75 383.519 275.875C383.019 278 382.769 279.844 382.769 281.406C382.769 282.094 382.878 282.766 383.097 283.422C383.347 284.047 383.691 284.609 384.128 285.109C384.566 285.578 385.081 285.969 385.675 286.281C386.269 286.562 386.925 286.703 387.644 286.703C389.519 286.703 391.253 286.375 392.847 285.719C394.441 285.031 395.878 284.109 397.159 282.953C398.472 281.766 399.628 280.359 400.628 278.734C401.628 277.109 402.472 275.359 403.159 273.484C403.847 271.578 404.362 269.578 404.706 267.484C405.081 265.391 405.284 263.281 405.316 261.156ZM514.628 261.484C514.628 262.078 514.519 262.688 514.3 263.312C514.112 263.906 513.862 264.516 513.55 265.141C513.269 265.734 512.941 266.328 512.566 266.922C512.191 267.484 511.831 268.031 511.487 268.562C510.581 269.969 509.519 271.406 508.3 272.875C507.081 274.312 505.769 275.719 504.362 277.094C502.987 278.469 501.566 279.766 500.097 280.984C498.628 282.203 497.191 283.281 495.784 284.219C494.659 284.969 493.581 285.672 492.55 286.328C491.55 286.984 490.534 287.547 489.503 288.016C488.472 288.484 487.394 288.859 486.269 289.141C485.144 289.422 483.909 289.562 482.566 289.562C479.972 289.562 477.862 288.906 476.237 287.594C475.425 286.938 474.706 286.094 474.081 285.062C473.487 284 472.956 282.828 472.487 281.547C472.05 280.266 471.659 278.906 471.316 277.469C471.003 276.031 470.737 274.609 470.519 273.203C470.237 271.453 469.972 269.891 469.722 268.516C469.472 267.109 469.175 265.938 468.831 265C468.519 264.031 468.128 263.297 467.659 262.797C467.191 262.266 466.581 262 465.831 262C465.237 262 464.675 262.062 464.144 262.188C463.612 262.312 463.05 262.562 462.456 262.938C461.894 263.312 461.269 263.844 460.581 264.531C459.894 265.219 459.081 266.125 458.144 267.25C457.237 268.375 456.191 269.75 455.003 271.375C453.816 273 452.425 274.938 450.831 277.188C450.05 278.281 449.128 279.484 448.066 280.797C447.003 282.109 445.909 283.359 444.784 284.547C443.691 285.734 442.612 286.781 441.55 287.688C440.487 288.594 439.55 289.172 438.737 289.422C435.987 288.828 434.612 285.406 434.612 279.156C434.612 277.5 434.8 274.984 435.175 271.609C435.362 270.078 435.581 268.484 435.831 266.828C436.081 265.141 436.394 263.469 436.769 261.812C437.144 260.125 437.566 258.5 438.034 256.938C438.534 255.344 439.112 253.875 439.769 252.531C440.081 251.906 440.409 251.422 440.753 251.078C441.097 250.703 441.441 250.438 441.784 250.281C442.159 250.094 442.534 249.984 442.909 249.953C443.316 249.891 443.722 249.859 444.128 249.859C444.628 249.859 445.066 250.203 445.441 250.891C445.847 251.578 446.05 252.531 446.05 253.75C446.05 254.5 445.987 255.203 445.862 255.859C445.737 256.516 445.566 257.188 445.347 257.875C445.128 258.562 444.894 259.312 444.644 260.125C444.394 260.906 444.144 261.812 443.894 262.844C443.706 263.688 443.487 264.625 443.237 265.656C443.019 266.688 442.8 267.734 442.581 268.797C442.394 269.859 442.222 270.906 442.066 271.938C441.941 272.938 441.878 273.844 441.878 274.656C441.878 275.219 441.972 275.797 442.159 276.391C443.034 276.297 444.472 274.984 446.472 272.453C447.503 271.172 448.628 269.766 449.847 268.234C451.097 266.703 452.441 265.016 453.878 263.172C454.941 261.797 455.987 260.516 457.019 259.328C458.081 258.141 459.175 257.109 460.3 256.234C461.425 255.328 462.612 254.625 463.862 254.125C465.144 253.594 466.55 253.328 468.081 253.328C469.706 253.328 471.05 253.688 472.112 254.406C473.206 255.094 474.081 256.062 474.737 257.312C475.394 258.531 475.894 260 476.237 261.719C476.612 263.438 476.909 265.328 477.128 267.391C477.316 269.141 477.487 270.875 477.644 272.594C477.831 274.312 478.175 275.859 478.675 277.234C479.175 278.578 479.894 279.672 480.831 280.516C481.769 281.359 483.112 281.781 484.862 281.781C486.206 281.781 487.612 281.469 489.081 280.844C490.55 280.219 492.097 279.359 493.722 278.266C495.347 277.141 497.019 275.828 498.737 274.328C500.487 272.828 502.284 271.188 504.128 269.406C504.847 268.719 505.628 267.859 506.472 266.828C507.347 265.766 508.191 264.75 509.003 263.781C509.847 262.812 510.628 261.984 511.347 261.297C512.066 260.609 512.644 260.266 513.081 260.266C513.269 260.266 513.566 260.359 513.972 260.547C514.409 260.734 514.628 261.047 514.628 261.484ZM539.378 261.484C539.378 261.766 539.237 262.094 538.956 262.469C538.675 262.812 538.347 263.156 537.972 263.5C537.597 263.812 537.206 264.109 536.8 264.391C536.425 264.641 536.112 264.828 535.862 264.953C535.8 264.984 535.519 265.047 535.019 265.141C534.55 265.234 533.987 265.328 533.331 265.422C532.706 265.516 532.081 265.609 531.456 265.703C530.831 265.797 530.362 265.859 530.05 265.891C528.112 266.109 526.378 266.312 524.847 266.5C523.316 266.656 522.128 266.906 521.284 267.25C521.253 267.531 521.191 268.094 521.097 268.938C521.003 269.75 520.894 270.703 520.769 271.797C520.644 272.859 520.503 274 520.347 275.219C520.191 276.406 520.05 277.547 519.925 278.641C519.8 279.703 519.691 280.641 519.597 281.453C519.503 282.234 519.441 282.75 519.409 283C519.253 284.344 519.05 285.969 518.8 287.875C518.55 289.781 518.253 291.781 517.909 293.875C517.566 295.938 517.159 298 516.691 300.062C516.253 302.125 515.753 303.969 515.191 305.594C513.878 309.312 512.112 312.234 509.894 314.359C507.706 316.516 505.003 317.594 501.784 317.594C500.972 317.594 500.175 317.453 499.394 317.172C498.644 316.922 497.956 316.578 497.331 316.141C496.706 315.703 496.206 315.203 495.831 314.641C495.456 314.078 495.269 313.484 495.269 312.859C495.269 312.453 495.269 312.109 495.269 311.828C495.269 311.547 495.316 311.328 495.409 311.172C495.472 311.016 495.597 310.891 495.784 310.797C495.972 310.734 496.269 310.703 496.675 310.703C496.8 310.703 497.066 310.734 497.472 310.797C497.847 310.891 498.269 310.969 498.737 311.031C499.175 311.125 499.612 311.203 500.05 311.266C500.487 311.359 500.831 311.406 501.081 311.406C502.675 311.406 504.112 310.766 505.394 309.484C506.675 308.203 507.816 306.188 508.816 303.438C509.816 300.719 510.691 297.219 511.441 292.938C512.191 288.625 512.831 283.469 513.362 277.469C513.394 276.938 513.441 276.297 513.503 275.547C513.597 274.797 513.659 274.031 513.691 273.25C513.753 272.438 513.8 271.656 513.831 270.906C513.894 270.156 513.925 269.516 513.925 268.984C513.925 268.578 513.753 268.25 513.409 268C513.097 267.75 512.737 267.531 512.331 267.344C511.956 267.125 511.597 266.891 511.253 266.641C510.941 266.359 510.784 266 510.784 265.562C510.784 265.156 510.956 264.703 511.3 264.203C511.644 263.703 512.237 262.922 513.081 261.859C513.519 261.328 513.909 260.766 514.253 260.172C514.597 259.578 514.878 259 515.097 258.438C515.347 257.875 515.534 257.359 515.659 256.891C515.816 256.422 515.925 256.031 515.987 255.719C516.05 255.406 516.128 254.984 516.222 254.453C516.316 253.891 516.409 253.281 516.503 252.625C516.628 251.969 516.753 251.297 516.878 250.609C517.003 249.891 517.112 249.203 517.206 248.547C517.456 246.953 517.706 245.453 517.956 244.047C518.237 242.609 518.566 241.219 518.941 239.875C519.316 238.5 519.769 237.141 520.3 235.797C520.831 234.422 521.472 233.016 522.222 231.578C523.034 230.016 523.894 228.609 524.8 227.359C525.737 226.078 526.737 225 527.8 224.125C528.862 223.219 530.003 222.531 531.222 222.062C532.472 221.562 533.816 221.312 535.253 221.312C536.503 221.312 537.644 221.531 538.675 221.969C539.737 222.406 540.659 223.016 541.441 223.797C542.222 224.578 542.831 225.516 543.269 226.609C543.706 227.703 543.925 228.906 543.925 230.219C543.925 231.75 543.706 233.422 543.269 235.234C542.862 237.016 542.081 238.766 540.925 240.484C539.612 242.484 538.394 243.484 537.269 243.484H537.081C537.206 242.922 537.331 242.281 537.456 241.562C537.581 240.844 537.675 240.109 537.737 239.359C537.8 238.578 537.847 237.812 537.878 237.062C537.941 236.312 537.972 235.641 537.972 235.047C537.972 233.609 537.862 232.406 537.644 231.438C537.456 230.469 537.175 229.688 536.8 229.094C536.456 228.5 536.019 228.078 535.487 227.828C534.987 227.578 534.441 227.453 533.847 227.453C533.066 227.453 532.316 227.75 531.597 228.344C530.909 228.906 530.269 229.594 529.675 230.406C529.112 231.219 528.597 232.078 528.128 232.984C527.659 233.859 527.284 234.609 527.003 235.234C526.472 236.391 525.925 237.906 525.362 239.781C524.831 241.625 524.331 243.578 523.862 245.641C523.394 247.672 522.987 249.656 522.644 251.594C522.331 253.5 522.128 255.109 522.034 256.422C522.034 257.234 522.081 257.906 522.175 258.438C522.3 258.938 522.472 259.328 522.691 259.609C522.909 259.891 523.191 260.094 523.534 260.219C523.878 260.312 524.269 260.359 524.706 260.359C525.269 260.359 526.066 260.359 527.097 260.359C528.128 260.328 529.237 260.312 530.425 260.312C531.612 260.281 532.8 260.266 533.987 260.266C535.175 260.266 536.222 260.281 537.128 260.312C537.253 260.344 537.441 260.375 537.691 260.406C537.941 260.438 538.191 260.5 538.441 260.594C538.691 260.656 538.909 260.766 539.097 260.922C539.284 261.047 539.378 261.234 539.378 261.484ZM601.862 262.656C601.862 263.125 601.519 263.953 600.831 265.141C599.206 267.484 597.378 269.828 595.347 272.172C593.347 274.516 591.206 276.75 588.925 278.875C586.675 280.969 584.316 282.938 581.847 284.781C579.409 286.594 576.941 288.172 574.441 289.516C571.941 290.828 569.441 291.844 566.941 292.562C564.472 293.281 562.081 293.625 559.769 293.594C554.769 293.594 550.878 292.141 548.097 289.234C545.347 286.328 543.972 281.938 543.972 276.062C543.972 271.156 544.722 266.391 546.222 261.766C547.753 257.141 550.347 252.688 554.003 248.406C554.691 247.656 555.456 246.938 556.3 246.25C557.175 245.562 558.081 244.953 559.019 244.422C559.987 243.891 560.972 243.469 561.972 243.156C563.003 242.844 564.034 242.656 565.066 242.594C565.316 242.594 565.659 242.625 566.097 242.688C566.534 242.75 567.003 242.859 567.503 243.016C568.003 243.172 568.487 243.375 568.956 243.625C569.425 243.844 569.8 244.125 570.081 244.469C570.956 245.469 571.644 246.5 572.144 247.562C572.675 248.625 572.972 249.797 573.034 251.078C573.097 252.516 572.925 253.938 572.519 255.344C572.144 256.719 571.487 258.141 570.55 259.609C569.644 261.047 568.441 262.547 566.941 264.109C565.441 265.641 563.628 267.297 561.503 269.078C560.159 270.203 558.659 271.453 557.003 272.828C555.378 274.172 553.409 275.594 551.097 277.094C551.097 280.125 552.003 282.438 553.816 284.031C555.659 285.594 558.175 286.375 561.362 286.375C563.144 286.375 564.941 286.141 566.753 285.672C568.566 285.203 570.347 284.594 572.097 283.844C573.847 283.062 575.534 282.188 577.159 281.219C578.816 280.219 580.362 279.203 581.8 278.172C584.456 276.234 586.862 274.312 589.019 272.406C591.175 270.469 593.316 268.438 595.441 266.312L597.972 263.781C599.503 262.438 600.612 261.766 601.3 261.766C601.675 261.766 601.862 262.062 601.862 262.656ZM566.05 253.328C566.019 252.859 565.941 252.406 565.816 251.969C565.722 251.5 565.566 251.094 565.347 250.75C565.128 250.406 564.878 250.141 564.597 249.953C564.316 249.734 563.987 249.625 563.612 249.625C561.956 249.719 560.3 250.734 558.644 252.672C556.987 254.578 555.425 257.109 553.956 260.266C553.612 260.953 553.3 261.734 553.019 262.609C552.769 263.453 552.519 264.328 552.269 265.234C552.05 266.109 551.847 266.984 551.659 267.859C551.503 268.734 551.362 269.516 551.237 270.203C552.862 268.984 554.362 267.859 555.737 266.828C557.112 265.797 558.394 264.734 559.581 263.641C560.331 262.953 561.097 262.219 561.878 261.438C562.659 260.625 563.362 259.781 563.987 258.906C564.644 258.031 565.159 257.125 565.534 256.188C565.909 255.25 566.081 254.297 566.05 253.328ZM638.05 274.234C638.05 274.516 637.878 274.922 637.534 275.453C637.222 275.984 636.753 276.594 636.128 277.281C635.534 277.938 634.816 278.656 633.972 279.438C633.128 280.188 632.175 280.938 631.112 281.688C628.519 283.562 625.691 285.469 622.628 287.406C619.566 289.344 616.503 291.25 613.441 293.125C610.972 294.625 608.628 295.984 606.409 297.203C604.191 298.453 602.237 299.5 600.55 300.344C599.487 300.875 598.55 301.328 597.737 301.703C596.956 302.078 596.237 302.391 595.581 302.641C594.925 302.891 594.3 303.062 593.706 303.156C593.144 303.281 592.581 303.344 592.019 303.344C591.737 303.344 591.394 303.25 590.987 303.062C590.581 302.906 590.206 302.672 589.862 302.359C589.519 302.078 589.222 301.75 588.972 301.375C588.722 301 588.597 300.609 588.597 300.203C588.597 298.203 589.378 296.609 590.941 295.422C591.316 295.141 591.675 294.891 592.019 294.672C592.362 294.453 592.753 294.25 593.191 294.062C593.628 293.844 594.144 293.641 594.737 293.453C595.362 293.266 596.128 293.078 597.034 292.891C598.722 292.547 600.331 292.109 601.862 291.578C603.425 291.047 604.597 290.484 605.378 289.891C606.159 289.297 606.691 288.547 606.972 287.641C607.284 286.734 607.441 285.766 607.441 284.734C607.441 283.703 606.362 281.609 604.206 278.453C603.144 276.859 602.191 275.469 601.347 274.281C600.534 273.094 599.831 271.969 599.237 270.906C598.644 269.812 598.191 268.625 597.878 267.344C597.597 266.031 597.456 264.781 597.456 263.594C597.456 261.438 597.847 259.234 598.628 256.984C599.003 255.672 599.581 254.375 600.362 253.094C601.175 251.781 602.066 250.609 603.034 249.578C604.003 248.547 604.972 247.703 605.941 247.047C606.941 246.391 607.816 246.062 608.566 246.062H608.706C611.456 246.062 612.831 247.688 612.831 250.938C612.831 252.188 612.378 253.406 611.472 254.594C610.566 255.75 609.316 256.984 607.722 258.297C606.941 258.953 606.222 259.531 605.566 260.031C604.909 260.531 604.409 260.953 604.066 261.297C604.066 262.109 604.191 263.062 604.441 264.156C604.691 265.219 605.066 266.297 605.566 267.391C606.097 268.453 606.784 269.562 607.628 270.719C608.472 271.875 609.3 273 610.112 274.094C610.612 274.781 611.128 275.547 611.659 276.391C612.222 277.203 612.737 278.078 613.206 279.016C613.675 279.922 614.066 280.844 614.378 281.781C614.691 282.719 614.878 283.625 614.941 284.5C614.941 284.562 615.003 284.656 615.128 284.781C615.253 284.875 615.394 284.922 615.55 284.922C615.8 284.922 616.284 284.734 617.003 284.359C617.753 283.953 618.644 283.453 619.675 282.859C620.706 282.234 621.831 281.547 623.05 280.797C624.269 280.016 625.472 279.25 626.659 278.5C627.847 277.719 628.972 276.984 630.034 276.297C631.128 275.609 632.05 275.031 632.8 274.562C633.8 273.938 634.55 273.391 635.05 272.922C635.581 272.422 636.066 272.172 636.503 272.172C637.034 272.172 637.425 272.375 637.675 272.781C637.925 273.156 638.05 273.641 638.05 274.234ZM682.487 261.109C682.487 261.609 682.347 262.172 682.066 262.797C681.784 263.391 681.409 264.016 680.941 264.672C680.472 265.328 679.941 266 679.347 266.688C678.753 267.344 678.159 268 677.566 268.656C677.097 269.188 676.597 269.734 676.066 270.297C675.534 270.828 674.925 271.438 674.237 272.125C673.581 272.781 672.8 273.562 671.894 274.469C670.987 275.344 669.925 276.375 668.706 277.562C667.612 278.625 666.394 279.75 665.05 280.938C663.737 282.094 662.394 283.234 661.019 284.359C659.675 285.484 658.362 286.562 657.081 287.594C655.8 288.625 654.691 289.531 653.753 290.312C651.503 292.156 649.362 293.891 647.331 295.516C645.3 297.172 643.3 298.656 641.331 299.969C637.425 302.594 634.331 303.906 632.05 303.906C631.269 303.906 630.362 303.703 629.331 303.297C628.269 302.891 627.737 302.328 627.737 301.609C627.737 299.578 628.503 297.984 630.034 296.828C631.534 295.734 633.878 294.547 637.066 293.266C640.191 292.016 642.534 290.797 644.097 289.609C645.659 288.422 646.441 286.797 646.441 284.734C646.441 283.703 645.362 281.609 643.206 278.453C642.144 276.859 641.191 275.406 640.347 274.094C639.534 272.75 638.831 271.547 638.237 270.484C637.05 268.297 636.456 266 636.456 263.594C636.456 261.5 636.847 259.297 637.628 256.984C638.003 255.672 638.597 254.359 639.409 253.047C640.253 251.703 641.159 250.516 642.128 249.484C643.097 248.422 644.081 247.578 645.081 246.953C646.081 246.328 646.956 246.031 647.706 246.062C650.456 246.062 651.831 247.688 651.831 250.938C651.831 252.188 651.378 253.406 650.472 254.594C650.034 255.156 649.503 255.75 648.878 256.375C648.253 256.969 647.534 257.609 646.722 258.297C645.941 258.953 645.269 259.531 644.706 260.031C644.175 260.531 643.737 260.953 643.394 261.297C643.394 262.922 643.894 264.828 644.894 267.016C645.425 268.078 646.034 269.234 646.722 270.484C647.409 271.734 648.206 273.078 649.112 274.516C650.019 275.953 650.784 277.25 651.409 278.406C652.034 279.531 652.503 280.359 652.816 280.891C652.847 281.016 653.019 281.078 653.331 281.078C653.769 281.078 654.519 280.766 655.581 280.141C656.675 279.484 657.956 278.625 659.425 277.562C660.925 276.469 662.55 275.219 664.3 273.812C666.05 272.375 667.8 270.859 669.55 269.266C671.362 267.641 672.862 266.219 674.05 265C675.237 263.781 676.362 262.641 677.425 261.578C678.487 260.516 679.269 259.703 679.769 259.141C680.3 258.547 680.597 258.25 680.659 258.25C680.909 258.25 681.144 258.344 681.362 258.531C681.581 258.719 681.769 258.969 681.925 259.281C682.112 259.562 682.253 259.875 682.347 260.219C682.441 260.531 682.487 260.828 682.487 261.109ZM743.378 263.078C743.378 263.453 743.331 263.906 743.237 264.438C743.144 264.938 743.003 265.453 742.816 265.984C742.659 266.516 742.472 267.031 742.253 267.531C742.066 268 741.862 268.375 741.644 268.656C741.456 268.906 741.175 269.25 740.8 269.688C740.456 270.094 740.066 270.547 739.628 271.047C739.191 271.547 738.706 272.078 738.175 272.641C737.675 273.172 737.144 273.688 736.581 274.188C734.644 275.969 732.737 277.703 730.862 279.391C729.019 281.047 727.112 282.516 725.144 283.797C723.175 285.078 721.112 286.109 718.956 286.891C716.831 287.641 714.519 288 712.019 287.969C710.862 287.969 709.691 287.766 708.503 287.359C707.347 286.922 706.253 286.312 705.222 285.531C704.191 284.75 703.3 283.812 702.55 282.719C701.8 281.625 701.269 280.422 700.956 279.109C700.05 280.047 699.097 281.031 698.097 282.062C697.097 283.062 696.05 284.078 694.956 285.109C693.894 286.141 692.784 287.141 691.628 288.109C690.472 289.078 689.284 289.969 688.066 290.781C687.378 291.219 686.55 291.688 685.581 292.188C684.644 292.688 683.644 293.156 682.581 293.594C681.55 294 680.503 294.344 679.441 294.625C678.409 294.875 677.472 295 676.628 295C675.347 295 674.237 294.609 673.3 293.828C672.394 293.016 671.628 292.031 671.003 290.875C670.409 289.719 669.956 288.484 669.644 287.172C669.362 285.859 669.222 284.688 669.222 283.656C669.222 281.594 669.519 279.484 670.112 277.328C670.706 275.172 671.472 273.078 672.409 271.047C673.378 268.984 674.441 267.031 675.597 265.188C676.784 263.344 677.941 261.703 679.066 260.266C680.253 258.766 681.659 257.281 683.284 255.812C684.909 254.312 686.597 252.984 688.347 251.828C690.097 250.641 691.816 249.688 693.503 248.969C695.191 248.25 696.691 247.891 698.003 247.891C698.659 247.891 699.347 247.891 700.066 247.891C700.816 247.891 701.55 247.938 702.269 248.031C702.987 248.094 703.691 248.219 704.378 248.406C705.066 248.562 705.691 248.812 706.253 249.156C706.534 249.344 706.862 249.703 707.237 250.234C707.612 250.766 707.956 251.359 708.269 252.016C708.612 252.672 708.894 253.328 709.112 253.984C709.331 254.641 709.441 255.156 709.441 255.531C709.441 256.562 709.206 257.938 708.737 259.656C708.237 261.812 707.769 263.781 707.331 265.562C706.925 267.312 706.722 269.125 706.722 271C706.722 272.062 706.894 273.156 707.237 274.281C707.581 275.375 708.066 276.375 708.691 277.281C709.347 278.188 710.128 278.938 711.034 279.531C711.972 280.094 713.019 280.375 714.175 280.375C716.081 280.375 718.034 279.984 720.034 279.203C722.034 278.391 724.05 277.297 726.081 275.922C728.144 274.516 730.191 272.906 732.222 271.094C734.253 269.25 736.253 267.297 738.222 265.234C738.378 265.047 738.644 264.734 739.019 264.297C739.425 263.828 739.831 263.375 740.237 262.938C740.675 262.469 741.097 262.062 741.503 261.719C741.909 261.344 742.206 261.156 742.394 261.156C743.05 261.156 743.378 261.797 743.378 263.078ZM701.659 259.188C701.659 258.656 701.628 258 701.566 257.219C701.503 256.438 701.3 255.797 700.956 255.297C700.612 254.797 700.191 254.562 699.691 254.594C699.191 254.594 698.691 254.594 698.191 254.594C697.097 254.594 696.034 254.766 695.003 255.109C694.003 255.453 693.019 255.938 692.05 256.562C691.081 257.156 690.144 257.859 689.237 258.672C688.362 259.453 687.503 260.281 686.659 261.156C685.941 261.875 685.175 262.766 684.362 263.828C683.581 264.891 682.8 266.062 682.019 267.344C681.269 268.594 680.534 269.922 679.816 271.328C679.097 272.703 678.472 274.078 677.941 275.453C677.409 276.797 676.987 278.109 676.675 279.391C676.362 280.641 676.206 281.781 676.206 282.812C676.206 283.125 676.237 283.547 676.3 284.078C676.394 284.578 676.519 285.078 676.675 285.578C676.862 286.047 677.097 286.453 677.378 286.797C677.691 287.141 678.066 287.312 678.503 287.312C679.941 287.312 681.737 286.859 683.894 285.953C686.831 284.703 689.487 283 691.862 280.844C694.269 278.656 696.316 276.141 698.003 273.297C700.441 268.891 701.659 264.188 701.659 259.188ZM787.769 254.453C787.769 255.016 787.691 255.5 787.534 255.906C787.378 256.312 787.159 256.656 786.878 256.938C786.597 257.219 786.269 257.484 785.894 257.734C785.519 257.953 785.128 258.172 784.722 258.391C783.691 258.859 782.456 259.25 781.019 259.562C779.612 259.875 778.144 260.156 776.612 260.406C775.112 260.625 773.612 260.828 772.112 261.016C770.644 261.172 769.3 261.344 768.081 261.531C765.8 261.875 763.784 262.156 762.034 262.375C760.284 262.562 758.769 262.75 757.487 262.938C756.206 263.125 755.144 263.328 754.3 263.547C753.456 263.766 752.784 264.078 752.284 264.484C751.628 267.328 750.941 270.219 750.222 273.156C749.534 276.062 748.941 278.797 748.441 281.359C748.347 281.797 748.237 282.266 748.112 282.766C748.019 283.234 747.909 283.734 747.784 284.266C747.566 285.359 747.394 286.328 747.269 287.172C747.144 287.984 747.081 288.766 747.081 289.516C747.081 290.578 747.191 291.438 747.409 292.094C747.534 292.438 747.675 292.891 747.831 293.453C747.987 293.984 748.191 294.609 748.441 295.328C748.941 296.797 749.191 297.844 749.191 298.469C749.191 299.469 748.784 300.547 747.972 301.703C747.191 302.859 746.316 303.438 745.347 303.438C744.316 303.438 743.253 302.656 742.159 301.094C741.628 300.312 741.159 299.531 740.753 298.75C740.347 298 739.987 297.234 739.675 296.453C739.175 294.953 738.925 293.484 738.925 292.047C738.925 291.734 738.941 291.422 738.972 291.109C739.003 290.766 739.05 290.406 739.112 290.031C739.237 289.344 739.425 288.484 739.675 287.453C739.8 286.953 739.894 286.531 739.956 286.188C740.05 285.812 740.128 285.516 740.191 285.297C740.941 281.828 741.566 278.922 742.066 276.578C742.597 274.234 742.987 272.406 743.237 271.094C743.894 268.156 744.222 266.5 744.222 266.125C744.222 265.625 744.034 265.25 743.659 265C743.316 264.719 742.894 264.578 742.394 264.578C741.8 264.578 741.128 264.609 740.378 264.672C739.628 264.703 738.8 264.781 737.894 264.906C736.987 265.031 736.237 265.125 735.644 265.188C735.05 265.219 734.612 265.234 734.331 265.234C733.206 265.234 732.175 265.062 731.237 264.719C730.331 264.375 729.55 263.891 728.894 263.266C728.206 262.609 727.675 261.844 727.3 260.969C726.925 260.062 726.737 259.047 726.737 257.922C727.612 258.047 728.503 258.141 729.409 258.203C730.347 258.234 731.316 258.25 732.316 258.25C732.753 258.25 733.409 258.234 734.284 258.203C735.191 258.141 736.316 258.047 737.659 257.922C739.034 257.797 740.206 257.703 741.175 257.641C742.175 257.578 742.987 257.547 743.612 257.547C744.362 257.547 745.191 256.391 746.097 254.078C746.534 252.891 746.941 251.688 747.316 250.469C747.722 249.25 748.081 247.984 748.394 246.672C748.737 245.359 749.019 244.203 749.237 243.203C749.487 242.172 749.691 241.297 749.847 240.578C749.909 240.391 750.05 239.703 750.269 238.516C750.425 237.891 750.55 237.312 750.644 236.781C750.769 236.219 750.862 235.719 750.925 235.281C751.144 234.094 751.378 233 751.628 232C751.909 231 752.222 230.094 752.566 229.281C753.253 227.656 754.362 226.844 755.894 226.844C758.206 226.844 759.362 228.125 759.362 230.688C759.362 232.281 759.019 234.109 758.331 236.172C755.362 245.641 753.878 251.422 753.878 253.516C753.878 254.672 754.456 255.25 755.612 255.25C758.456 255.25 761.331 255.188 764.237 255.062C767.175 254.906 770.019 254.703 772.769 254.453C774.206 254.328 775.472 254.203 776.566 254.078C777.691 253.922 778.722 253.781 779.659 253.656C780.597 253.5 781.487 253.359 782.331 253.234C783.206 253.109 784.128 252.984 785.097 252.859C785.284 252.828 785.519 252.812 785.8 252.812C786.112 252.781 786.409 252.812 786.691 252.906C786.972 253 787.222 253.172 787.441 253.422C787.659 253.641 787.769 253.984 787.769 254.453ZM798.409 226.375C798.409 228.406 797.878 230.141 796.816 231.578C795.784 233.016 794.269 233.734 792.269 233.734C791.019 233.734 789.628 233.547 788.097 233.172C786.597 232.797 785.847 232.188 785.847 231.344C785.847 229.812 786.316 228.359 787.253 226.984C788.222 225.578 789.378 224.438 790.722 223.562C791.784 222.938 792.487 222.625 792.831 222.625C794.612 222.625 795.987 222.875 796.956 223.375C797.925 223.844 798.409 224.844 798.409 226.375ZM829.112 264.484C829.144 265.141 828.847 266.031 828.222 267.156C827.628 268.281 826.8 269.562 825.737 271C824.706 272.406 823.487 273.922 822.081 275.547C820.706 277.172 819.253 278.797 817.722 280.422C815.972 282.297 814.112 284.109 812.144 285.859C810.206 287.578 808.128 289.25 805.909 290.875C801.534 294.125 797.628 295.75 794.191 295.75C790.409 295.75 787.472 294.484 785.378 291.953C783.284 289.391 781.862 286.297 781.112 282.672C780.362 279.078 779.987 275.375 779.987 271.562C779.987 269.969 780.175 267.484 780.55 264.109C780.737 262.422 780.925 260.969 781.112 259.75C781.3 258.531 781.503 257.547 781.722 256.797C782.159 255.328 783.081 254.047 784.487 252.953C785.925 251.797 787.425 251.219 788.987 251.219C789.831 251.219 790.253 252.016 790.253 253.609C790.253 254.672 790.144 255.875 789.925 257.219C789.737 258.562 789.534 259.891 789.316 261.203C788.909 263.672 788.612 265.891 788.425 267.859C788.237 269.797 788.144 271.484 788.144 272.922C788.144 276.078 788.581 279.266 789.456 282.484C790.331 285.766 791.909 287.406 794.191 287.406C796.503 287.406 799.191 286.562 802.253 284.875C803.784 284 805.316 283.031 806.847 281.969C808.378 280.906 809.909 279.719 811.441 278.406C813.003 277.094 814.503 275.781 815.941 274.469C817.378 273.125 818.784 271.75 820.159 270.344C821.534 268.938 822.769 267.625 823.862 266.406C824.956 265.188 825.909 264.062 826.722 263.031C826.753 262.969 826.8 262.875 826.862 262.75C826.956 262.594 827.05 262.453 827.144 262.328C827.237 262.172 827.331 262.047 827.425 261.953C827.519 261.859 827.612 261.828 827.706 261.859C828.144 261.859 828.472 262.203 828.691 262.891C828.972 263.547 829.112 264.078 829.112 264.484ZM887.284 253.656C887.284 254.188 887.097 254.766 886.722 255.391C886.347 256.016 885.862 256.656 885.269 257.312C884.675 257.938 884.003 258.562 883.253 259.188C882.503 259.781 881.753 260.344 881.003 260.875C880.253 261.375 879.534 261.828 878.847 262.234C878.191 262.609 877.644 262.891 877.206 263.078C876.394 263.422 875.316 263.734 873.972 264.016C872.659 264.266 871.284 264.484 869.847 264.672C868.409 264.859 867.003 265.016 865.628 265.141C864.253 265.234 863.097 265.281 862.159 265.281C861.784 265.281 861.269 265.219 860.612 265.094C859.956 264.969 859.284 264.812 858.597 264.625C857.909 264.438 857.253 264.234 856.628 264.016C856.034 263.766 855.597 263.516 855.316 263.266C855.597 264.453 855.847 265.656 856.066 266.875C856.284 268.062 856.394 269.297 856.394 270.578C856.394 271.141 856.316 271.828 856.159 272.641C856.034 273.453 855.847 274.281 855.597 275.125C855.378 275.938 855.128 276.734 854.847 277.516C854.566 278.266 854.269 278.891 853.956 279.391C853.144 280.766 852.3 282.016 851.425 283.141C850.581 284.266 849.612 285.312 848.519 286.281C847.456 287.219 846.253 288.109 844.909 288.953C843.566 289.797 842.019 290.609 840.269 291.391C838.394 292.203 836.503 292.781 834.597 293.125C832.722 293.438 830.769 293.594 828.737 293.594C827.456 293.594 826.316 293.219 825.316 292.469C824.316 291.719 823.472 290.719 822.784 289.469C822.097 288.188 821.566 286.719 821.191 285.062C820.847 283.406 820.675 281.672 820.675 279.859C820.675 279.391 820.706 278.812 820.769 278.125C820.862 277.438 820.972 276.734 821.097 276.016C821.253 275.297 821.409 274.609 821.566 273.953C821.722 273.297 821.878 272.734 822.034 272.266C822.472 270.953 823.097 269.453 823.909 267.766C824.722 266.078 825.675 264.359 826.769 262.609C827.862 260.828 829.081 259.094 830.425 257.406C831.769 255.688 833.175 254.156 834.644 252.812C836.112 251.469 837.644 250.391 839.237 249.578C840.831 248.766 842.425 248.359 844.019 248.359C844.55 248.359 844.972 248.438 845.284 248.594C845.628 248.75 845.909 248.953 846.128 249.203C846.378 249.453 846.597 249.719 846.784 250C846.972 250.281 847.191 250.562 847.441 250.844C847.534 251 847.675 251.078 847.862 251.078C848.112 251.078 848.425 251.016 848.8 250.891C849.175 250.766 849.597 250.703 850.066 250.703C850.659 250.703 851.394 251.094 852.269 251.875C853.144 252.625 854.05 253.469 854.987 254.406C855.956 255.312 856.909 256.156 857.847 256.938C858.816 257.688 859.675 258.062 860.425 258.062C861.269 258.062 862.175 258.047 863.144 258.016C864.112 257.984 865.097 257.938 866.097 257.875C867.097 257.781 868.081 257.672 869.05 257.547C870.019 257.422 870.909 257.281 871.722 257.125C871.941 257.062 872.456 256.922 873.269 256.703C874.081 256.484 875.019 256.234 876.081 255.953C877.175 255.641 878.316 255.312 879.503 254.969C880.722 254.625 881.847 254.312 882.878 254.031C883.909 253.719 884.753 253.469 885.409 253.281C886.097 253.094 886.472 253 886.534 253C886.722 253 886.894 253.047 887.05 253.141C887.206 253.234 887.284 253.406 887.284 253.656ZM850.722 261.156C850.534 260.531 850.159 259.922 849.597 259.328C849.066 258.734 848.441 258.203 847.722 257.734C847.034 257.266 846.3 256.891 845.519 256.609C844.737 256.297 844.003 256.141 843.316 256.141C842.753 256.141 842.206 256.234 841.675 256.422C841.144 256.609 840.612 256.859 840.081 257.172C839.581 257.453 839.097 257.781 838.628 258.156C838.159 258.5 837.722 258.828 837.316 259.141C836.097 260.172 834.925 261.625 833.8 263.5C832.706 265.344 831.737 267.344 830.894 269.5C830.081 271.625 829.425 273.75 828.925 275.875C828.425 278 828.175 279.844 828.175 281.406C828.175 282.094 828.284 282.766 828.503 283.422C828.753 284.047 829.097 284.609 829.534 285.109C829.972 285.578 830.487 285.969 831.081 286.281C831.675 286.562 832.331 286.703 833.05 286.703C834.925 286.703 836.659 286.375 838.253 285.719C839.847 285.031 841.284 284.109 842.566 282.953C843.878 281.766 845.034 280.359 846.034 278.734C847.034 277.109 847.878 275.359 848.566 273.484C849.253 271.578 849.769 269.578 850.112 267.484C850.487 265.391 850.691 263.281 850.722 261.156ZM960.034 261.484C960.034 262.078 959.925 262.688 959.706 263.312C959.519 263.906 959.269 264.516 958.956 265.141C958.675 265.734 958.347 266.328 957.972 266.922C957.597 267.484 957.237 268.031 956.894 268.562C955.987 269.969 954.925 271.406 953.706 272.875C952.487 274.312 951.175 275.719 949.769 277.094C948.394 278.469 946.972 279.766 945.503 280.984C944.034 282.203 942.597 283.281 941.191 284.219C940.066 284.969 938.987 285.672 937.956 286.328C936.956 286.984 935.941 287.547 934.909 288.016C933.878 288.484 932.8 288.859 931.675 289.141C930.55 289.422 929.316 289.562 927.972 289.562C925.378 289.562 923.269 288.906 921.644 287.594C920.831 286.938 920.112 286.094 919.487 285.062C918.894 284 918.362 282.828 917.894 281.547C917.456 280.266 917.066 278.906 916.722 277.469C916.409 276.031 916.144 274.609 915.925 273.203C915.644 271.453 915.378 269.891 915.128 268.516C914.878 267.109 914.581 265.938 914.237 265C913.925 264.031 913.534 263.297 913.066 262.797C912.597 262.266 911.987 262 911.237 262C910.644 262 910.081 262.062 909.55 262.188C909.019 262.312 908.456 262.562 907.862 262.938C907.3 263.312 906.675 263.844 905.987 264.531C905.3 265.219 904.487 266.125 903.55 267.25C902.644 268.375 901.597 269.75 900.409 271.375C899.222 273 897.831 274.938 896.237 277.188C895.456 278.281 894.534 279.484 893.472 280.797C892.409 282.109 891.316 283.359 890.191 284.547C889.097 285.734 888.019 286.781 886.956 287.688C885.894 288.594 884.956 289.172 884.144 289.422C881.394 288.828 880.019 285.406 880.019 279.156C880.019 277.5 880.206 274.984 880.581 271.609C880.769 270.078 880.987 268.484 881.237 266.828C881.487 265.141 881.8 263.469 882.175 261.812C882.55 260.125 882.972 258.5 883.441 256.938C883.941 255.344 884.519 253.875 885.175 252.531C885.487 251.906 885.816 251.422 886.159 251.078C886.503 250.703 886.847 250.438 887.191 250.281C887.566 250.094 887.941 249.984 888.316 249.953C888.722 249.891 889.128 249.859 889.534 249.859C890.034 249.859 890.472 250.203 890.847 250.891C891.253 251.578 891.456 252.531 891.456 253.75C891.456 254.5 891.394 255.203 891.269 255.859C891.144 256.516 890.972 257.188 890.753 257.875C890.534 258.562 890.3 259.312 890.05 260.125C889.8 260.906 889.55 261.812 889.3 262.844C889.112 263.688 888.894 264.625 888.644 265.656C888.425 266.688 888.206 267.734 887.987 268.797C887.8 269.859 887.628 270.906 887.472 271.938C887.347 272.938 887.284 273.844 887.284 274.656C887.284 275.219 887.378 275.797 887.566 276.391C888.441 276.297 889.878 274.984 891.878 272.453C892.909 271.172 894.034 269.766 895.253 268.234C896.503 266.703 897.847 265.016 899.284 263.172C900.347 261.797 901.394 260.516 902.425 259.328C903.487 258.141 904.581 257.109 905.706 256.234C906.831 255.328 908.019 254.625 909.269 254.125C910.55 253.594 911.956 253.328 913.487 253.328C915.112 253.328 916.456 253.688 917.519 254.406C918.612 255.094 919.487 256.062 920.144 257.312C920.8 258.531 921.3 260 921.644 261.719C922.019 263.438 922.316 265.328 922.534 267.391C922.722 269.141 922.894 270.875 923.05 272.594C923.237 274.312 923.581 275.859 924.081 277.234C924.581 278.578 925.3 279.672 926.237 280.516C927.175 281.359 928.519 281.781 930.269 281.781C931.612 281.781 933.019 281.469 934.487 280.844C935.956 280.219 937.503 279.359 939.128 278.266C940.753 277.141 942.425 275.828 944.144 274.328C945.894 272.828 947.691 271.188 949.534 269.406C950.253 268.719 951.034 267.859 951.878 266.828C952.753 265.766 953.597 264.75 954.409 263.781C955.253 262.812 956.034 261.984 956.753 261.297C957.472 260.609 958.05 260.266 958.487 260.266C958.675 260.266 958.972 260.359 959.378 260.547C959.816 260.734 960.034 261.047 960.034 261.484ZM979.019 284.828C979.019 286.422 978.737 287.984 978.175 289.516C977.612 291.016 976.847 292.438 975.878 293.781C974.941 295.125 973.847 296.359 972.597 297.484C971.378 298.641 970.097 299.625 968.753 300.438C967.441 301.281 966.112 301.922 964.769 302.359C963.425 302.828 962.191 303.062 961.066 303.062C959.503 303.062 958.472 302.719 957.972 302.031C957.472 301.344 957.222 300.375 957.222 299.125C957.222 297.969 957.441 297.078 957.878 296.453C958.316 295.859 958.941 295.344 959.753 294.906C959.847 294.875 960.019 294.844 960.269 294.812C960.519 294.75 960.784 294.719 961.066 294.719C961.378 294.688 961.675 294.672 961.956 294.672C962.269 294.641 962.519 294.625 962.706 294.625C962.925 294.625 963.237 294.578 963.644 294.484C964.05 294.391 964.487 294.266 964.956 294.109C965.425 293.922 965.909 293.703 966.409 293.453C966.909 293.172 967.378 292.859 967.816 292.516C969.066 291.516 969.941 290.406 970.441 289.188C970.972 287.938 971.237 286.828 971.237 285.859C971.237 284.641 970.847 283.5 970.066 282.438C969.284 281.375 968.3 280.344 967.112 279.344C965.925 278.312 964.644 277.297 963.269 276.297C961.894 275.266 960.612 274.188 959.425 273.062C958.237 271.906 957.253 270.688 956.472 269.406C955.691 268.125 955.3 266.703 955.3 265.141C955.3 264.359 955.394 263.531 955.581 262.656C955.8 261.781 956.066 260.922 956.378 260.078C956.722 259.234 957.097 258.422 957.503 257.641C957.941 256.828 958.394 256.094 958.862 255.438C959.612 254.375 960.425 253.328 961.3 252.297C962.206 251.266 963.112 250.359 964.019 249.578C964.925 248.766 965.816 248.125 966.691 247.656C967.566 247.156 968.378 246.906 969.128 246.906C971.253 246.906 972.316 248.156 972.316 250.656C972.316 251.531 971.956 252.547 971.237 253.703C970.55 254.859 969.722 255.922 968.753 256.891C967.253 258.328 965.941 259.562 964.816 260.594C963.691 261.594 962.644 262.625 961.675 263.688C962.394 264.75 963.175 265.719 964.019 266.594C964.862 267.469 965.737 268.312 966.644 269.125C967.581 269.938 968.519 270.734 969.456 271.516C970.425 272.297 971.378 273.109 972.316 273.953C973.191 274.766 974.019 275.594 974.8 276.438C975.612 277.25 976.331 278.109 976.956 279.016C977.581 279.891 978.081 280.812 978.456 281.781C978.831 282.75 979.019 283.766 979.019 284.828Z" fill="white"/>
</svg>
