<svg width="201" height="201" viewBox="0 0 201 201" fill="none" xmlns="http://www.w3.org/2000/svg">
<path d="M29.7251 52.9804C26.5251 51.3804 22.7251 51.9804 21.2251 52.4804L27.7251 58.9804L34.2251 65.9804L38.2251 66.4804L33.7251 71.4804L29.7251 89.9804L28.2251 98.4804L31.7251 97.9804L37.7251 94.9804L40.7251 92.4804L42.2251 88.4804L43.7251 81.9804L46.2251 74.9804L48.2251 70.4804L50.2251 67.4804L51.2251 67.9804L50.7251 73.4804L49.7251 77.9804V93.4804L52.2251 97.9804L55.2251 101.98L61.7251 105.98L50.2251 127.98L49.2251 130.48C49.3918 131.314 49.5251 133.48 48.7251 135.48C47.7251 137.98 43.2251 137.48 42.7251 137.98C42.3251 138.38 38.8918 139.147 37.2251 139.48C36.3918 139.647 34.1251 140.18 31.7251 140.98C29.3251 141.78 28.0585 144.314 27.7251 145.48C27.5585 146.647 27.3251 149.18 27.7251 149.98C28.1251 150.78 30.2251 152.98 31.2251 153.98L38.2251 152.98L45.7251 154.98L55.2251 156.98L73.7251 159.98L90.7251 157.98L85.7251 144.48L88.7251 137.98C89.3918 136.147 92.6251 133.18 94.2251 129.98C95.8251 126.78 98.7251 122.314 100.225 120.98L102.225 114.48L107.725 106.48L115.225 100.98L128.725 99.4804L140.725 102.48L149.225 110.98L153.725 100.98L161.725 94.9804L172.225 93.9804L184.225 99.4804L180.225 92.4804L169.225 80.9804L151.225 69.9804L123.725 67.9804L104.725 73.4804L85.7251 80.9804C85.2251 80.9804 82.2251 78.4804 81.7251 77.4804C81.2251 76.4804 79.2251 73.6471 79.7251 72.4804L84.2251 59.4804L91.2251 47.4804L100.225 36.9804V31.9804L87.2251 40.4804L79.7251 49.4804L73.2251 53.9804H61.7251C60.9251 53.9804 48.7251 58.3138 42.7251 60.4804C39.7251 58.6471 32.9251 54.5804 29.7251 52.9804Z" fill="#F4B670"/>
<path d="M19.7251 74.9804C18.8918 71.6471 17.2251 62.7804 17.2251 53.9804H21.2251L30.2251 60.4804L35.7251 67.9804L27.2251 87.4804L22.7251 81.9804L19.7251 74.9804Z" fill="#FFF7F1"/>
<path d="M50.7251 73.4804V67.9804H50.2251L48.2251 70.4804L45.7251 75.4804L41.7251 90.4804L39.7251 93.4804C38.8918 94.1471 36.9251 95.5804 35.7251 95.9804L31.2251 98.4804L28.2251 97.4804L17.2251 102.48L13.2251 113.98L17.2251 122.48L31.2251 129.98H44.2251L49.7251 127.98L53.7251 119.98L60.7251 106.48L53.7251 99.9804L49.7251 93.4804L48.7251 83.9804L50.7251 73.4804Z" fill="#FFF7F1"/>
<path d="M94.7251 42.4804L104.225 31.4804L108.225 36.9804V45.4804L106.725 67.4804L104.725 72.4804C100.725 74.4804 92.5251 79.2804 87.7251 80.4804C85.2251 80.9804 83.7251 80.4804 81.7251 78.9804C80.4057 77.9909 79.5585 74.8138 79.7251 73.4804L85.2251 56.9804L94.7251 42.4804Z" fill="#FFF7F1"/>
<path d="M136.725 100.98L149.725 110.98L151.725 105.98C153.058 102.814 156.325 96.1804 158.725 94.9804C161.725 93.4804 164.725 93.9804 170.225 93.4804C174.625 93.0804 179.725 95.9804 181.725 97.4804C182.892 98.8138 185.825 102.48 188.225 106.48C190.625 110.48 191.225 119.147 191.225 122.98L188.225 144.48L190.225 153.48L187.225 161.98L177.225 164.98L169.225 156.98L164.225 159.48L160.225 160.98L153.725 159.48L151.225 156.98L148.225 159.48L144.225 160.98L139.725 161.98L138.225 164.48L134.725 168.98L126.225 167.98L118.725 163.48H98.2251L87.2251 149.98L89.2251 137.48C92.7412 128.44 95.1424 123.853 101.725 117.98L109.225 107.48L114.725 102.98L125.225 99.9804L136.725 100.98Z" fill="#FFF7F1"/>
<path d="M132.412 151.572C133.504 154.232 132.429 157.193 130.011 158.185C127.594 159.176 124.749 157.824 123.658 155.163C122.566 152.503 123.641 149.542 126.059 148.55C128.476 147.558 131.321 148.911 132.412 151.572Z" fill="#FFA2A2"/>
<path d="M181.989 147.654C183.081 150.315 182.005 153.276 179.588 154.267C177.17 155.259 174.326 153.906 173.234 151.246C172.143 148.586 173.218 145.625 175.635 144.633C178.053 143.641 180.898 144.994 181.989 147.654Z" fill="#FFA2A2"/>
<path d="M127.552 160.683C127.985 161.547 127.635 162.599 126.771 163.032C125.907 163.465 124.856 163.116 124.423 162.252C123.99 161.388 124.339 160.336 125.203 159.903C126.067 159.47 127.118 159.819 127.552 160.683Z" fill="#FFA2A2"/>
<path d="M132.249 162.585C132.682 163.449 132.333 164.501 131.469 164.934C130.605 165.367 129.553 165.018 129.12 164.154C128.687 163.29 129.036 162.238 129.9 161.805C130.764 161.372 131.816 161.721 132.249 162.585Z" fill="#FFA2A2"/>
<path d="M135.953 158.745C136.386 159.609 136.037 160.66 135.173 161.093C134.309 161.526 133.257 161.177 132.824 160.313C132.391 159.449 132.74 158.398 133.604 157.964C134.468 157.531 135.52 157.881 135.953 158.745Z" fill="#FFA2A2"/>
<path d="M176.775 156.385C177.208 157.249 176.859 158.3 175.995 158.733C175.131 159.167 174.079 158.817 173.646 157.953C173.213 157.089 173.562 156.038 174.426 155.605C175.29 155.171 176.342 155.521 176.775 156.385Z" fill="#FFA2A2"/>
<path d="M181.969 157.165C182.402 158.029 182.053 159.08 181.189 159.514C180.325 159.947 179.274 159.597 178.84 158.733C178.407 157.869 178.757 156.818 179.621 156.385C180.485 155.952 181.536 156.301 181.969 157.165Z" fill="#FFA2A2"/>
<path d="M185.79 154.036C186.223 154.9 185.873 155.952 185.009 156.385C184.145 156.818 183.094 156.469 182.661 155.605C182.228 154.741 182.577 153.689 183.441 153.256C184.305 152.823 185.356 153.172 185.79 154.036Z" fill="#FFA2A2"/>
<path d="M103.237 29.1775C100.065 29.6671 93.4656 33.2437 88.5904 37.1822C84.8648 40.1626 79.9683 45.421 76.0511 50.6369C74.7525 52.3187 74.6673 52.4039 74.0287 52.2548C71.0482 51.6162 65.4917 51.531 62.1068 52.0632C55.9755 53.0212 50.0359 55.1289 44.4794 58.3009C43.9046 58.6415 43.8833 58.6203 42.7763 57.5558C40.5623 55.4056 38.3695 54.2347 33.2601 52.489C28.2785 50.7646 25.1703 50.1685 21.4234 50.1472C18.7623 50.1259 18.3578 50.1685 17.5914 50.5943C14.1212 52.4677 13.3335 56.8959 14.9302 65.6882C16.6121 74.9277 19.8054 81.7402 25.0638 87.2753C26.3624 88.6591 26.3624 88.6591 26.5328 90.2345C26.6605 91.6609 27.0224 93.9388 27.3843 95.7058C27.5333 96.3445 27.5333 96.3445 25.4257 97.2812C22.7433 98.4521 21.104 98.9843 15.9947 100.283C13.7167 100.879 11.4388 101.496 10.9279 101.688C8.99057 102.412 8.33061 103.774 8.33061 107.032C8.33061 112.631 9.94858 118.081 12.6523 121.657C16.8037 127.15 23.8929 130.961 31.2164 131.663C32.0466 131.748 33.0046 131.876 33.3453 131.94C34.431 132.174 41.7757 132.068 43.2234 131.791C44.7775 131.493 46.9703 130.769 47.6728 130.322C47.9283 130.152 48.205 130.045 48.2476 130.109C48.354 130.215 47.9708 133.536 47.758 134.324C47.6302 134.771 47.2257 134.984 45.0542 135.751C43.5001 136.283 41.2435 136.879 39.3062 137.219C35.3039 137.922 31.8337 138.837 30.3009 139.604C27.2992 141.073 25.5109 144.075 25.5535 147.609C25.596 151.292 27.363 154.762 29.8539 156.039C32.1531 157.231 35.5167 157.423 37.3902 156.444L38.4546 155.911L39.7746 156.529C41.3287 157.231 42.0099 157.274 45.5226 156.891L48.1199 156.614L49.0992 157.274C51.2281 158.679 57.9767 160.403 65.0872 161.34C74.6247 162.617 84.6945 162.341 89.9103 160.68L91.3154 160.233L92.6779 161.404C97.8724 165.875 103.195 167.727 110.199 167.471C113.903 167.322 115.074 167.003 117.096 165.598L118.672 164.491L119.63 165.64C123.143 169.834 126.634 171.899 130.53 172.155C135.341 172.474 139.131 169.685 140.983 164.448L141.345 163.384H143.239C145.879 163.362 147.838 162.511 150.329 160.339L151.393 159.403L152.202 160.041C154.033 161.489 156.29 162.319 159.291 162.639C162.442 162.958 165.827 162.255 167.083 160.999L167.764 160.318L168.786 161.532C171.618 164.917 175.045 166.811 178.813 167.045C183.71 167.386 188.266 164.299 190.352 159.296C191.417 156.742 191.693 155.081 191.566 151.781C191.48 149.418 191.353 148.588 190.884 147.098C190.565 146.097 190.288 144.99 190.288 144.649C190.288 144.287 190.586 142.946 190.948 141.669C193.013 134.388 193.758 125.085 192.907 117.399C192.055 109.714 189.458 101.475 185.839 95.0459C183.305 90.5539 180.602 87.0412 176.535 82.9962C160.611 67.1359 135.405 61.7498 110.05 68.839C108.304 69.3287 108.176 69.3287 108.176 68.9668C108.176 68.7539 108.645 67.3062 109.198 65.7521C110.582 61.9414 110.859 60.8343 111.285 57.5771C111.54 55.6611 111.646 53.2554 111.668 49.7001C111.668 43.8031 111.348 41.4826 109.879 37.0119C109.049 34.4572 107.41 30.9232 106.729 30.1568C105.962 29.2839 104.727 28.9433 103.237 29.1775ZM105.409 37.3951C106.196 40.2265 106.452 41.5464 106.665 44.2289C106.856 46.5068 106.665 53.3193 106.26 58.3222C105.877 62.8568 104.557 70.2441 104.068 70.6273C103.918 70.7337 102.769 71.2234 101.47 71.713C98.0853 73.033 91.507 76.3115 88.1646 78.3339C86.5892 79.2919 84.95 80.2925 84.5455 80.5267C83.3533 81.2292 78.4568 84.9123 76.2427 86.7431C73.5603 88.9998 67.3865 95.1523 65.1937 97.8134C64.2144 98.9843 62.7455 100.879 61.8939 102.007C61.0636 103.157 60.2759 104.072 60.1482 104.094C59.8714 104.094 56.529 101.475 55.2091 100.177C53.3357 98.3882 51.3984 94.7478 50.781 91.9377C50.0998 88.6804 50.2275 83.8478 51.2281 76.6308C51.888 71.7343 51.9732 71.0318 51.9732 69.5841C51.9732 67.6255 51.59 66.8378 50.632 66.8378C49.4185 66.8378 47.9921 69.0306 45.7142 74.3316C44.4369 77.3334 43.4363 80.5906 42.3718 85.2529C41.2009 90.3623 40.6474 91.7886 39.3062 93.1511C38.7314 93.7259 37.5818 94.5988 36.7515 95.0459C35.1974 95.9187 31.408 97.2812 30.5564 97.2812C30.1093 97.2812 30.0667 97.2386 30.2796 96.7064C30.3861 96.3871 30.6628 95.0884 30.897 93.8111C31.3015 91.3841 31.7486 90.3623 31.7486 91.8099C31.7486 92.6828 32.2169 93.9601 32.7492 94.5562C33.1324 95.0033 34.282 95.2587 34.9207 95.0459C35.5806 94.8542 35.9425 94.173 36.4322 92.3634C37.007 90.2345 37.007 87.616 36.4322 86.7005C35.7296 85.5296 33.9201 85.4871 32.7279 86.5941L32.1105 87.1689L32.2595 85.998C32.7705 81.8041 35.091 75.4386 37.4115 71.7769C43.0318 62.9419 55.2091 56.832 69.707 55.5333C71.2185 55.4056 72.4958 55.3418 72.5384 55.4056C72.581 55.4482 72.1978 56.4062 71.6656 57.5132C70.4734 59.9402 70.2179 61.5582 70.8566 62.3458C71.2185 62.7716 71.3249 62.8142 71.7294 62.6013C72.0062 62.4523 72.7513 61.5156 73.39 60.4937C76.0085 56.4275 78.3503 53.0638 79.9896 50.9988C83.5662 46.5707 87.9943 42.1425 91.5283 39.524C93.5933 37.9699 98.1492 35.1384 98.5749 35.1171C98.724 35.1171 98.064 35.99 97.0847 37.0332C94.4023 39.9285 93.1888 41.3548 91.1451 44.0798C87.8878 48.4441 86.0995 51.7652 83.4171 58.5351C80.6921 65.4115 79.8831 68.0726 79.3509 71.6279C79.0529 73.6716 79.1593 74.289 79.8406 74.289C80.4154 74.289 80.607 73.9484 81.1392 71.9472C82.4591 66.9656 85.5886 59.8976 88.9736 54.2773C92.3798 48.5931 95.2113 44.6333 99.831 39.1195C101.321 37.3312 102.833 35.479 103.173 35.0107C103.535 34.5423 103.897 34.0953 104.025 34.0101C104.28 33.8185 104.664 34.7339 105.409 37.3951ZM26.554 54.916C30.088 55.6398 35.5167 57.4281 38.4121 58.7906C39.9023 59.5144 41.1158 60.1531 41.1158 60.2169C41.1158 60.3021 40.2003 61.1111 39.072 62.0478C37.9437 62.9632 36.7728 64.049 36.4535 64.4322C36.1554 64.8154 35.7935 65.1347 35.6658 65.1347C35.538 65.1347 34.9632 64.5386 34.3884 63.7935C32.0892 60.8769 26.6605 55.9378 24.7871 55.065C24.5103 54.9373 24.2974 54.7669 24.2974 54.6605C24.2974 54.4476 24.1271 54.4263 26.554 54.916ZM24.638 59.1738C28.0443 61.6646 31.4718 64.6025 32.8982 66.2843L33.9201 67.4765L32.8556 69.0306C30.2583 72.7988 27.8101 79.0365 27.1714 83.5498C26.916 85.2103 26.7669 85.338 26.1496 84.38C24.2123 81.2931 21.5085 74.2039 20.0396 68.3707C18.8261 63.4742 18.2939 60.4298 18.2513 58.1093C18.2087 54.916 18.2087 54.9373 20.146 56.1082C21.0189 56.6404 23.0414 58.0242 24.638 59.1738ZM49.5249 72.8414C48.3753 78.7171 48.1412 80.4416 47.9921 84.5503C47.8005 89.8939 48.2689 92.8957 49.8017 96.2593C51.441 99.8572 53.7615 102.54 57.0826 104.647C58.147 105.307 58.9986 105.946 58.9986 106.052C58.9986 106.18 58.8283 106.521 58.5941 106.819C55.9117 110.672 52.0796 118.57 50.0572 124.382C49.4824 126.021 49.3972 126.149 48.4179 126.703C45.9058 128.129 44.8414 128.406 41.648 128.385C39.1359 128.385 35.5806 128.023 35.3039 127.746C35.1974 127.639 35.6445 127.278 36.2619 126.937C36.8792 126.575 37.9011 125.83 38.5185 125.276C39.4765 124.403 39.6468 124.169 39.583 123.594C39.4978 122.658 38.8378 122.636 37.5605 123.531C35.5593 124.978 32.0466 126.234 30.0029 126.234C27.4482 126.234 21.9769 123.403 18.89 120.508C17.6552 119.337 16.4205 117.825 16.4205 117.485C16.4205 117.399 16.7611 117.144 17.1656 116.952C19.997 115.611 22.0408 111.736 21.6576 108.415C21.5085 107.074 20.8273 105.179 20.2312 104.434C19.9757 104.115 19.8267 103.753 19.8906 103.604C19.9544 103.455 20.6357 103.114 21.4234 102.838C23.3181 102.178 25.5535 101.071 27.1076 100.049C27.9804 99.4527 28.5978 99.1972 29.1087 99.1972C30.2583 99.1972 32.7492 98.5798 34.5162 97.856C36.4748 97.0683 38.0289 96.0677 39.6681 94.5562C41.4564 92.8957 42.1589 91.299 43.564 85.6361C44.9904 79.9093 45.6929 77.7804 47.3109 74.0123C48.9076 70.3718 49.9294 68.541 50.2062 68.839C50.2701 68.8816 49.9507 70.6912 49.5249 72.8414ZM140.961 71.1808C151.542 72.7775 160.292 76.3328 168.084 82.166C170.553 84.0181 174.705 87.9566 176.599 90.2345C178.09 92.0654 180.091 94.7904 180.282 95.3013C180.368 95.5142 179.665 95.2375 178.409 94.5562C175.982 93.2576 173.172 92.2996 170.766 91.9377C168.51 91.6183 164.869 91.8099 162.485 92.3847C156.694 93.7898 151.925 98.6437 149.669 105.435C149.307 106.521 148.966 107.436 148.945 107.479C148.902 107.5 148.157 106.84 147.306 105.967C143.729 102.348 138.811 99.8572 132.233 98.3031C130.487 97.8986 129.593 97.8347 125.633 97.8347C121.567 97.8134 120.843 97.8773 119.14 98.3031C116.798 98.8992 113.052 100.687 111.05 102.199C107.41 104.924 103.94 109.373 101.492 114.398C99.5117 118.506 99.1497 119.635 99.1497 122.083C99.1497 123.594 99.2562 124.425 99.4904 124.957C99.8949 125.83 99.9374 125.766 100.406 123.488C101.023 120.465 102.301 117.825 105.26 113.376C108.794 108.053 114.073 103.753 118.97 102.178C125.378 100.113 134.213 101.39 140.855 105.328C143.048 106.627 145.943 109.459 146.986 111.353C148.051 113.269 148.647 113.78 149.754 113.759C151.138 113.716 151.563 113.035 152.521 109.267C154.565 101.22 158.568 96.749 164.72 95.6845C171.213 94.5562 177.451 96.6425 183.071 101.858C184.54 103.221 185.115 104.158 185.967 106.755C188.223 113.503 189.181 121.231 188.692 128.64C188.457 132.238 187.627 137.879 187.159 139.093L186.925 139.71L186.03 138.859C183.199 136.112 179.473 134.729 175.641 135.027C173.555 135.176 172.235 135.623 170.596 136.687C165.316 140.157 163.209 148.269 165.678 155.677C166.019 156.72 166.295 157.636 166.295 157.721C166.295 158.104 162.57 159.02 161.058 159.02C158.014 159.02 154.906 157.785 153.522 156.039C152.351 154.57 150.669 154.698 149.796 156.337C148.562 158.679 144.772 161.106 142.643 160.893L141.919 160.829L141.792 158.147C141.43 150.525 137.066 143.159 131.19 140.221L129.245 139.273L127.847 138.98H126.225C122.861 139.023 122.546 139.348 121.227 140.03C117.863 141.775 115.542 145.735 115.095 150.546C114.84 153.335 115.542 157.444 116.841 160.68C117.182 161.553 117.309 162.106 117.182 162.234C116.905 162.511 112.966 162.745 108.921 162.724C103.344 162.703 100.086 161.51 95.8925 157.955C93.1675 155.613 92.2308 154.251 90.2509 149.652C88.782 146.246 88.4201 143.031 89.229 140.477C89.6761 139.029 91.1451 136.432 92.2521 135.133C92.614 134.686 92.8695 134.26 92.7843 134.196C92.5288 133.941 90.7619 134.75 89.7187 135.602C87.3982 137.432 85.7589 140.243 85.099 143.521C84.3539 147.161 85.0138 150.759 87.2279 155.209L87.9304 156.635L87.2492 156.784C86.866 156.848 83.4384 156.976 79.6277 157.04C71.1333 157.167 67.5355 156.891 52.8248 154.953C51.8242 154.826 50.6746 154.591 50.2701 154.442C49.8656 154.272 48.6947 154.102 47.6941 154.038C44.4794 153.846 42.2867 153.101 40.7964 151.696C39.583 150.546 38.9017 150.504 37.0283 151.547C35.2187 152.526 34.2181 152.654 32.6001 152.037C31.3867 151.568 30.8332 150.717 30.3435 148.673C30.0242 147.311 30.0029 146.927 30.2371 146.076C30.5777 144.798 31.2802 143.883 32.4724 143.18C33.0046 142.861 35.6232 141.988 38.2843 141.222C45.2033 139.263 47.8644 138.22 51.441 136.07C53.3783 134.92 56.0607 132.834 55.9542 132.557C55.8052 132.11 53.8679 132.302 52.399 132.898C51.6539 133.196 51.0152 133.43 50.9726 133.387C50.93 133.366 51.441 131.706 52.1009 129.726C54.9749 120.976 58.2535 114.461 63.8312 106.436C66.1091 103.157 71.4953 97.0683 74.7951 94.0453C88.8458 81.1441 106.026 73.0117 123.292 71.0957C124.399 70.9892 125.612 70.8402 125.953 70.7976C127.571 70.5634 138.833 70.8615 140.961 71.1808ZM179.601 139.199C182.092 140.37 184.093 142.435 185.519 145.288C187.946 150.206 187.372 156.976 184.221 160.212C182.965 161.532 181.347 162.213 179.537 162.213C178.75 162.213 177.664 162.064 177.132 161.894C173.172 160.51 169.851 155.443 169.361 150.014C169.212 148.311 169.531 145.82 170.064 144.33C171.724 139.795 176.025 137.496 179.601 139.199ZM127.275 142.199C127.906 142.456 128.671 142.431 129.616 143.134C133.832 146.27 137.406 151.675 137.704 158.104C137.896 161.979 137.257 164.171 135.277 166.279C134.255 167.386 132.574 168.174 131.318 168.174C129.508 168.174 127.081 167.088 125.271 165.513C123.377 163.852 121.014 159.999 120.141 157.061C118.14 150.525 119.907 144.309 124.228 142.648C125.399 142.18 126.661 142.074 127.275 142.199Z" fill="#3F2410"/>
<path d="M62.4474 84.6355C61.6171 85.0613 61.1701 85.6361 60.2972 87.5095C59.1476 89.9365 59.4882 92.7679 61.1062 94.4285C62.3836 95.7058 63.9164 95.6632 65.1937 94.2795C66.2369 93.1511 66.6627 91.6609 66.7052 89.1701C66.7265 86.0406 65.9176 84.5929 63.959 84.3801C63.448 84.3162 62.8945 84.4226 62.4474 84.6355Z" fill="#3F2410"/>
</svg>
