<svg width="328" height="329" viewBox="0 0 328 329" fill="none" xmlns="http://www.w3.org/2000/svg">
<rect y="0.618652" width="328" height="328" rx="40" fill="#248EA9"/>
<rect y="0.618652" width="328" height="328" rx="40" fill="url(#paint0_linear_310_139)"/>
<path d="M52.3566 247.626C49.4926 247.626 47.0843 246.646 45.1315 244.685C43.309 242.855 42.3977 240.503 42.3977 237.627L43.5776 148.224C43.7078 137.898 48.1318 130.642 52.8183 122.407C57.5048 114.173 61.915 106.437 69.9862 101.731L66.0257 129.402C63.0315 134.892 59.936 141.166 59.936 148.224C59.936 155.152 61.774 162.688 64.7682 168.308C67.7624 173.798 72.0398 177.999 77.2471 181.267C82.5845 184.404 89.5886 186.107 96.0977 186.107C102.737 186.107 108.66 185.165 113.867 182.028C119.075 178.76 125.158 174.526 128.152 169.036C131.276 163.416 133.923 155.152 133.923 148.224C133.923 141.166 130.378 133.803 127.254 128.314L123.631 100.974C131.702 105.679 136.372 113.865 141.059 122.1C145.875 130.334 148.998 137.898 148.998 148.224C148.998 158.55 146.582 167.83 142.156 176.064C137.86 184.168 131.784 189.282 124.233 194.118C116.683 198.824 109.506 202.532 100.003 202.532C92.3224 202.532 84.5595 201.635 78.0504 198.498C71.6715 195.23 66.8719 190.181 62.3155 184.691V237.627C62.3155 240.503 61.4042 242.855 59.5817 244.685C57.7591 246.646 55.3508 247.626 52.3566 247.626Z" fill="#FAFDCB"/>
<path d="M188.96 247.521C186.096 247.521 183.688 246.541 181.735 244.58C179.913 242.75 179.002 240.397 179.002 237.522L180.181 148.119C180.312 137.793 184.736 130.537 189.422 122.302C194.109 114.068 198.519 106.332 206.59 101.626L202.63 129.297C199.635 134.787 196.54 141.061 196.54 148.119C196.54 155.046 198.378 162.583 201.372 168.203C204.366 173.693 208.644 177.894 213.851 181.162C219.188 184.299 226.192 186.002 232.702 186.002C239.341 186.002 245.264 185.06 250.471 181.923C255.679 178.655 261.762 174.421 264.756 168.931C267.88 163.311 270.527 155.046 270.527 148.119C270.527 141.061 266.982 133.698 263.858 128.208L260.235 100.869C268.306 105.574 272.976 113.76 277.663 121.994C282.479 130.229 285.602 137.793 285.602 148.119C285.602 158.445 283.186 167.725 278.759 175.959C274.463 184.063 268.388 189.177 260.837 194.013C253.287 198.719 246.11 202.427 236.607 202.427C228.926 202.427 221.163 201.529 214.654 198.393C208.275 195.125 203.476 190.076 198.919 184.586V237.522C198.919 240.397 198.008 242.75 196.186 244.58C194.363 246.541 191.955 247.521 188.96 247.521Z" fill="#FAFDCB"/>
<path d="M98.1837 194.235C86.2838 194.235 74.8712 189.489 66.4566 181.04C58.0421 172.592 53.3148 161.133 53.3148 149.186C53.3148 129.465 68.5142 113.692 81.8795 99.2368L98.1837 81.6111L114.488 99.2368C127.853 113.698 143.053 129.471 143.053 149.186C143.053 161.133 138.325 172.592 129.911 181.04C121.496 189.489 110.084 194.235 98.1837 194.235V194.235Z" stroke="#FAFDCB" stroke-width="20" stroke-linecap="round" stroke-linejoin="round"/>
<path d="M235.619 194.235C223.719 194.235 212.307 189.489 203.892 181.04C195.477 172.592 190.75 161.133 190.75 149.186C190.75 129.465 205.95 113.692 219.315 99.2368L235.619 81.6111L251.923 99.2368C265.289 113.698 280.488 129.471 280.488 149.186C280.488 161.133 275.761 172.592 267.346 181.04C258.932 189.489 247.519 194.235 235.619 194.235V194.235Z" stroke="#FAFDCB" stroke-width="20" stroke-linecap="round" stroke-linejoin="round"/>
<defs>
<linearGradient id="paint0_linear_310_139" x1="164" y1="0.618652" x2="164" y2="328.619" gradientUnits="userSpaceOnUse">
<stop stop-color="#28C3D4"/>
<stop offset="1" stop-color="white" stop-opacity="0"/>
</linearGradient>
</defs>
</svg>
